<svg width="456" height="79" viewBox="0 0 456 79" fill="none" xmlns="http://www.w3.org/2000/svg">
<path d="M13.488 45.624C11.216 45.624 9.216 45.112 7.488 44.088C5.792 43.064 4.48 41.608 3.552 39.72C2.624 37.832 2.16 35.592 2.16 33C2.16 30.536 2.56 28.168 3.36 25.896C4.16 23.624 5.312 21.592 6.816 19.8C8.32 18.008 10.128 16.584 12.24 15.528C14.352 14.472 16.736 13.944 19.392 13.944C21.376 13.944 23.008 14.248 24.288 14.856C25.568 15.464 26.208 16.36 26.208 17.544C26.208 18.12 26.048 18.696 25.728 19.272C25.44 19.816 25.056 20.28 24.576 20.664C24.096 21.048 23.6 21.24 23.088 21.24C22.768 21.24 22.512 21.16 22.32 21C21.456 20.424 20.608 20.008 19.776 19.752C18.944 19.464 17.984 19.32 16.896 19.32C14.624 19.32 12.704 19.848 11.136 20.904C9.568 21.928 8.368 23.288 7.536 24.984C6.736 26.68 6.336 28.52 6.336 30.504C6.336 32.424 6.704 34.12 7.44 35.592C8.176 37.064 9.2 38.216 10.512 39.048C11.824 39.88 13.36 40.296 15.12 40.296C16.528 40.296 17.888 40.024 19.2 39.48C20.544 38.904 21.728 38.12 22.752 37.128C23.2 36.712 23.648 36.504 24.096 36.504C24.48 36.504 24.752 36.664 24.912 36.984C25.072 37.304 25.152 37.624 25.152 37.944C25.152 38.488 24.992 39.112 24.672 39.816C24.352 40.488 23.856 41.16 23.184 41.832C22 43.016 20.544 43.944 18.816 44.616C17.088 45.288 15.312 45.624 13.488 45.624ZM71.1101 45.528C69.9581 45.528 69.4461 45.144 69.5741 44.376C69.9261 43 70.2141 41.608 70.4381 40.2C70.6941 38.76 70.8221 37.384 70.8221 36.072C70.8221 34.376 70.7101 33.144 70.4861 32.376C70.2941 31.576 70.0221 31.032 69.6701 30.744C69.3181 30.424 68.8861 30.184 68.3741 30.024C68.1501 29.928 67.9421 29.8 67.7501 29.64C67.5901 29.48 67.5101 29.256 67.5101 28.968C67.5101 28.52 67.6861 28.024 68.0381 27.48C68.3901 26.936 68.8861 26.472 69.5261 26.088C70.1981 25.672 70.9501 25.464 71.7821 25.464C72.8701 25.464 73.6221 25.848 74.0381 26.616C74.4541 27.352 74.6621 28.328 74.6621 29.544C74.6621 30.344 74.5821 31.24 74.4221 32.232C74.2621 33.224 74.1021 34.12 73.9421 34.92L74.0381 34.968C74.5501 33.272 75.1741 31.704 75.9101 30.264C76.6781 28.824 77.5901 27.656 78.6461 26.76C79.7341 25.864 80.9821 25.416 82.3901 25.416C83.8301 25.416 84.9661 25.912 85.7981 26.904C86.6301 27.864 87.0461 29.288 87.0461 31.176V32.232C87.9741 30.28 89.0941 28.648 90.4061 27.336C91.7501 26.024 93.3661 25.368 95.2541 25.368C96.7901 25.368 97.9901 25.88 98.8541 26.904C99.7181 27.928 100.15 29.208 100.15 30.744C100.15 31.352 100.086 31.944 99.9581 32.52C99.8301 33.064 99.6861 33.608 99.5261 34.152C99.3981 34.664 99.2701 35.192 99.1421 35.736C99.0141 36.28 98.9501 36.824 98.9501 37.368C98.9501 39.288 99.7661 40.536 101.398 41.112C101.622 41.208 101.798 41.32 101.926 41.448C102.054 41.544 102.118 41.736 102.118 42.024C102.118 42.312 102.022 42.728 101.83 43.272C101.67 43.816 101.334 44.328 100.822 44.808C100.31 45.256 99.5741 45.48 98.6141 45.48C97.3661 45.48 96.4061 45.032 95.7341 44.136C95.0621 43.208 94.7261 42.04 94.7261 40.632C94.7261 39.928 94.7901 39.192 94.9181 38.424C95.0461 37.656 95.2061 36.92 95.3981 36.216C95.5581 35.576 95.6861 34.968 95.7821 34.392C95.9101 33.816 95.9741 33.32 95.9741 32.904C95.9741 32.136 95.7821 31.576 95.3981 31.224C95.0461 30.872 94.5661 30.696 93.9581 30.696C92.9341 30.696 92.0061 31.016 91.1741 31.656C90.3741 32.296 89.6541 33.128 89.0141 34.152C88.4061 35.176 87.8781 36.296 87.4301 37.512C87.4621 37.8 87.4781 38.184 87.4781 38.664C87.5101 39.112 87.5261 39.512 87.5261 39.864C87.5261 40.472 87.4781 41.112 87.3821 41.784C87.3181 42.456 87.1741 43.016 86.9501 43.464C86.6941 44.072 86.3101 44.568 85.7981 44.952C85.3181 45.336 84.6621 45.528 83.8301 45.528C83.4781 45.528 83.1421 45.448 82.8221 45.288C82.5021 45.16 82.3421 44.936 82.3421 44.616C82.3421 44.488 82.4381 43.928 82.6301 42.936C82.8221 41.912 83.0141 40.664 83.2061 39.192C83.3981 37.72 83.4941 36.28 83.4941 34.872C83.4941 33.336 83.3341 32.28 83.0141 31.704C82.6941 31.096 82.2141 30.792 81.5741 30.792C80.7741 30.792 80.0061 31.128 79.2701 31.8C78.5661 32.472 77.9101 33.336 77.3021 34.392C76.7261 35.448 76.2141 36.552 75.7661 37.704C75.3501 38.856 75.0141 39.928 74.7581 40.92V41.448C74.7581 42.632 74.4221 43.608 73.7501 44.376C73.1101 45.144 72.2301 45.528 71.1101 45.528ZM112.036 58.248C111.076 58.248 110.324 57.976 109.78 57.432C109.236 56.92 108.964 55.976 108.964 54.6C108.964 53.672 109.06 52.504 109.252 51.096C109.476 49.688 109.732 48.2 110.02 46.632C110.244 45.384 110.452 44.072 110.644 42.696C110.868 41.32 111.044 39.976 111.172 38.664C111.332 37.32 111.412 36.12 111.412 35.064C111.412 33.848 111.268 32.792 110.98 31.896C110.724 31 110.18 30.424 109.348 30.168C109.028 30.04 108.74 29.896 108.484 29.736C108.228 29.576 108.1 29.32 108.1 28.968C108.1 28.52 108.276 28.024 108.628 27.48C108.98 26.936 109.476 26.472 110.116 26.088C110.788 25.672 111.54 25.464 112.372 25.464C113.46 25.464 114.212 25.848 114.628 26.616C115.044 27.352 115.252 28.328 115.252 29.544C115.252 29.896 115.236 30.264 115.204 30.648C115.172 31 115.124 31.368 115.06 31.752C115.988 29.96 117.204 28.456 118.708 27.24C120.244 25.992 121.972 25.368 123.892 25.368C125.812 25.368 127.316 26.024 128.404 27.336C129.524 28.616 130.084 30.36 130.084 32.568C130.084 34.2 129.828 35.8 129.316 37.368C128.804 38.904 128.084 40.296 127.156 41.544C126.228 42.792 125.108 43.784 123.796 44.52C122.516 45.256 121.076 45.624 119.476 45.624C118.324 45.624 117.316 45.416 116.452 45C115.588 44.616 114.836 44.104 114.196 43.464C114.068 44.296 113.94 45.304 113.812 46.488C113.716 47.672 113.668 48.776 113.668 49.8C113.668 50.984 113.796 51.912 114.052 52.584C114.34 53.256 114.884 53.768 115.684 54.12C116.036 54.28 116.212 54.536 116.212 54.888C116.212 55.144 116.084 55.544 115.828 56.088C115.572 56.632 115.14 57.128 114.532 57.576C113.956 58.024 113.124 58.248 112.036 58.248ZM120.58 40.44C122.404 40.44 123.812 39.864 124.804 38.712C125.796 37.56 126.292 36.232 126.292 34.728C126.292 33.416 125.94 32.408 125.236 31.704C124.532 30.968 123.588 30.6 122.404 30.6C121.188 30.6 120.116 30.968 119.188 31.704C118.26 32.408 117.46 33.336 116.788 34.488C116.148 35.64 115.62 36.872 115.204 38.184C116.804 39.688 118.596 40.44 120.58 40.44ZM143.554 45.624C141.634 45.624 140.082 45.032 138.898 43.848C137.746 42.632 137.17 40.904 137.17 38.664C137.17 37.064 137.474 35.48 138.082 33.912C138.722 32.312 139.634 30.872 140.818 29.592C142.002 28.312 143.426 27.288 145.09 26.52C146.754 25.752 148.626 25.368 150.706 25.368C152.626 25.368 154.258 25.704 155.602 26.376C156.978 27.016 157.666 27.896 157.666 29.016C157.666 29.304 157.634 29.688 157.57 30.168C157.506 30.616 157.426 30.984 157.33 31.272C157.234 31.528 157.09 31.768 156.898 31.992C156.738 32.184 156.514 32.28 156.226 32.28C156.098 32.28 155.858 32.232 155.506 32.136C155.378 32.808 155.282 33.464 155.218 34.104C155.154 34.744 155.122 35.384 155.122 36.024C155.122 37.24 155.298 38.328 155.65 39.288C156.034 40.216 156.77 40.792 157.858 41.016C158.146 41.08 158.37 41.176 158.53 41.304C158.722 41.432 158.818 41.704 158.818 42.12C158.818 42.472 158.722 42.92 158.53 43.464C158.37 44.008 158.034 44.504 157.522 44.952C157.042 45.368 156.338 45.576 155.41 45.576C154.162 45.576 153.202 45.128 152.53 44.232C151.858 43.304 151.522 41.992 151.522 40.296C150.658 41.864 149.554 43.144 148.21 44.136C146.898 45.128 145.346 45.624 143.554 45.624ZM145.09 40.632C146.37 40.632 147.49 40.232 148.45 39.432C149.442 38.632 150.21 37.624 150.754 36.408C151.106 35.64 151.378 34.808 151.57 33.912C151.762 32.984 151.89 32.072 151.954 31.176C151.41 30.92 150.786 30.712 150.082 30.552C149.378 30.392 148.642 30.312 147.874 30.312C145.922 30.312 144.306 30.888 143.026 32.04C141.778 33.192 141.154 34.632 141.154 36.36C141.154 37.64 141.506 38.68 142.21 39.48C142.914 40.248 143.874 40.632 145.09 40.632ZM170.958 22.056C170.51 22.056 170.142 21.832 169.854 21.384C169.598 20.904 169.47 20.376 169.47 19.8C169.47 18.84 169.854 17.944 170.622 17.112C171.422 16.248 172.51 15.816 173.886 15.816C175.038 15.816 176.286 16.136 177.63 16.776C178.142 17.032 178.67 17.288 179.214 17.544C179.758 17.768 180.27 17.88 180.75 17.88C181.262 17.88 181.614 17.736 181.806 17.448C182.03 17.16 182.19 16.856 182.286 16.536C182.35 16.28 182.446 16.072 182.574 15.912C182.702 15.72 182.878 15.624 183.102 15.624C183.55 15.624 183.918 15.864 184.206 16.344C184.526 16.792 184.686 17.32 184.686 17.928C184.686 18.952 184.27 19.896 183.438 20.76C182.606 21.624 181.534 22.056 180.222 22.056C179.646 22.056 179.054 21.976 178.446 21.816C177.838 21.624 177.23 21.384 176.622 21.096C176.014 20.744 175.438 20.472 174.894 20.28C174.35 20.056 173.854 19.944 173.406 19.944C172.894 19.944 172.526 20.072 172.302 20.328C172.11 20.584 171.966 20.856 171.87 21.144C171.806 21.368 171.71 21.576 171.582 21.768C171.454 21.96 171.246 22.056 170.958 22.056ZM168.318 45.528C167.166 45.528 166.654 45.144 166.782 44.376C167.134 43 167.422 41.608 167.646 40.2C167.902 38.76 168.03 37.384 168.03 36.072C168.03 34.376 167.918 33.144 167.694 32.376C167.502 31.576 167.23 31.032 166.878 30.744C166.526 30.424 166.094 30.184 165.582 30.024C165.358 29.928 165.15 29.8 164.958 29.64C164.798 29.48 164.718 29.256 164.718 28.968C164.718 28.52 164.894 28.024 165.246 27.48C165.598 26.936 166.094 26.472 166.734 26.088C167.406 25.672 168.158 25.464 168.99 25.464C170.078 25.464 170.83 25.848 171.246 26.616C171.662 27.352 171.87 28.328 171.87 29.544C171.87 30.344 171.79 31.24 171.63 32.232C171.47 33.224 171.31 34.12 171.15 34.92L171.294 34.968C171.934 33.272 172.702 31.704 173.598 30.264C174.526 28.792 175.598 27.608 176.814 26.712C178.03 25.816 179.438 25.368 181.038 25.368C182.734 25.368 184.03 25.88 184.926 26.904C185.822 27.928 186.27 29.208 186.27 30.744C186.27 31.384 186.19 31.992 186.03 32.568C185.902 33.144 185.758 33.704 185.598 34.248C185.438 34.76 185.294 35.288 185.166 35.832C185.07 36.376 185.022 36.92 185.022 37.464C185.022 39.288 185.886 40.52 187.614 41.16C188.062 41.352 188.286 41.64 188.286 42.024C188.286 42.312 188.19 42.728 187.998 43.272C187.806 43.816 187.454 44.328 186.942 44.808C186.43 45.256 185.678 45.48 184.686 45.48C183.406 45.48 182.414 45.032 181.71 44.136C181.006 43.208 180.654 42.04 180.654 40.632C180.654 39.832 180.734 39.032 180.894 38.232C181.086 37.4 181.278 36.632 181.47 35.928C181.598 35.384 181.71 34.856 181.806 34.344C181.934 33.8 181.998 33.32 181.998 32.904C181.998 31.432 181.23 30.696 179.694 30.696C178.382 30.696 177.23 31.192 176.238 32.184C175.246 33.144 174.398 34.36 173.694 35.832C172.99 37.304 172.414 38.792 171.966 40.296V41.448C171.966 42.632 171.63 43.608 170.958 44.376C170.318 45.144 169.438 45.528 168.318 45.528ZM202.74 45.624C200.308 45.624 198.404 44.936 197.028 43.56C195.684 42.152 195.012 40.2 195.012 37.704C195.012 35.432 195.508 33.368 196.5 31.512C197.492 29.656 198.82 28.184 200.484 27.096C202.18 25.976 204.036 25.416 206.052 25.416C207.972 25.416 209.508 25.896 210.66 26.856C211.812 27.784 212.388 29.032 212.388 30.6C212.388 31.848 212.004 33 211.236 34.056C210.468 35.112 209.444 35.96 208.164 36.6C206.884 37.208 205.46 37.512 203.892 37.512C201.972 37.512 200.404 37.08 199.188 36.216C199.22 37.688 199.716 38.872 200.676 39.768C201.668 40.664 202.932 41.112 204.468 41.112C205.396 41.112 206.34 40.952 207.3 40.632C208.292 40.28 209.14 39.816 209.844 39.24C210.292 38.856 210.708 38.664 211.092 38.664C211.412 38.664 211.668 38.776 211.86 39C212.084 39.192 212.196 39.448 212.196 39.768C212.196 40.472 211.588 41.4 210.372 42.552C208.228 44.6 205.684 45.624 202.74 45.624ZM203.46 34.344C204.612 34.344 205.572 34.104 206.34 33.624C207.108 33.144 207.492 32.536 207.492 31.8C207.492 31.192 207.236 30.728 206.724 30.408C206.212 30.056 205.508 29.88 204.612 29.88C203.428 29.88 202.388 30.2 201.492 30.84C200.628 31.448 200.004 32.312 199.62 33.432C200.068 33.72 200.644 33.944 201.348 34.104C202.052 34.264 202.756 34.344 203.46 34.344ZM222.783 45.528C222.271 45.528 221.855 45.432 221.535 45.24C221.247 45.08 221.151 44.792 221.247 44.376C221.599 43 221.887 41.608 222.111 40.2C222.367 38.76 222.495 37.384 222.495 36.072C222.495 34.376 222.383 33.144 222.159 32.376C221.967 31.576 221.695 31.032 221.343 30.744C220.991 30.424 220.559 30.184 220.047 30.024C219.823 29.928 219.615 29.8 219.423 29.64C219.263 29.48 219.183 29.256 219.183 28.968C219.183 28.52 219.359 28.024 219.711 27.48C220.063 26.936 220.559 26.472 221.199 26.088C221.839 25.672 222.575 25.464 223.407 25.464C224.495 25.464 225.247 25.848 225.663 26.616C226.111 27.352 226.335 28.328 226.335 29.544C226.911 28.264 227.615 27.256 228.447 26.52C229.311 25.752 230.383 25.368 231.663 25.368C232.527 25.368 233.247 25.56 233.823 25.944C234.399 26.328 234.687 26.952 234.687 27.816C234.687 28.68 234.399 29.496 233.823 30.264C233.279 31 232.719 31.368 232.143 31.368C232.047 31.368 231.935 31.352 231.807 31.32C231.679 31.288 231.567 31.208 231.471 31.08C231.055 30.568 230.543 30.312 229.935 30.312C229.007 30.312 228.191 30.92 227.487 32.136C226.783 33.352 226.399 35.032 226.335 37.176C226.367 37.976 226.383 38.792 226.383 39.624C226.415 40.456 226.431 41.064 226.431 41.448C226.431 42.632 226.095 43.608 225.423 44.376C224.783 45.144 223.903 45.528 222.783 45.528ZM247.827 45.624C245.619 45.624 243.843 45.032 242.499 43.848C241.187 42.632 240.531 40.856 240.531 38.52C240.531 37.432 240.675 36.376 240.963 35.352C241.283 34.328 241.699 33.368 242.211 32.472C241.699 32.792 241.315 32.952 241.059 32.952C240.675 32.952 240.403 32.744 240.243 32.328C240.115 31.88 240.051 31.448 240.051 31.032C240.051 30.296 240.195 29.72 240.483 29.304C240.803 28.856 241.107 28.52 241.395 28.296C242.067 27.72 243.123 27.096 244.563 26.424C246.003 25.72 247.731 25.368 249.747 25.368C252.499 25.368 254.627 26.136 256.131 27.672C257.667 29.208 258.435 31.352 258.435 34.104C258.435 36.248 257.987 38.2 257.091 39.96C256.195 41.688 254.947 43.064 253.347 44.088C251.779 45.112 249.939 45.624 247.827 45.624ZM249.315 40.728C250.915 40.728 252.259 40.232 253.347 39.24C254.467 38.216 255.027 36.872 255.027 35.208C255.027 33.48 254.467 32.248 253.347 31.512C252.227 30.776 250.931 30.408 249.459 30.408C248.787 30.408 248.179 30.472 247.635 30.6C247.091 30.728 246.579 30.888 246.099 31.08C245.651 31.72 245.251 32.44 244.899 33.24C244.547 34.04 244.371 34.92 244.371 35.88C244.371 37.48 244.851 38.696 245.811 39.528C246.771 40.328 247.939 40.728 249.315 40.728ZM272.31 45.624C271.126 45.624 270.022 45.448 268.998 45.096C267.974 44.744 267.142 44.248 266.502 43.608C265.862 42.968 265.542 42.2 265.542 41.304C265.542 40.824 265.654 40.376 265.878 39.96C266.134 39.512 266.534 39.288 267.078 39.288C267.366 39.288 267.67 39.368 267.99 39.528C268.566 39.848 269.302 40.152 270.198 40.44C271.094 40.696 272.038 40.824 273.03 40.824C274.15 40.824 275.142 40.664 276.006 40.344C276.87 40.024 277.302 39.576 277.302 39C277.302 38.552 276.966 38.232 276.294 38.04C275.654 37.848 274.566 37.64 273.03 37.416C271.974 37.224 270.95 37 269.958 36.744C268.966 36.488 268.15 36.056 267.51 35.448C266.87 34.808 266.55 33.88 266.55 32.664C266.55 31.48 266.87 30.344 267.51 29.256C268.182 28.136 269.174 27.208 270.486 26.472C271.798 25.736 273.398 25.368 275.286 25.368C276.278 25.368 277.238 25.48 278.166 25.704C279.094 25.928 279.862 26.264 280.47 26.712C281.078 27.16 281.382 27.72 281.382 28.392C281.382 28.968 281.174 29.496 280.758 29.976C280.374 30.456 279.91 30.856 279.366 31.176C278.854 31.464 278.422 31.608 278.07 31.608C277.814 31.608 277.51 31.432 277.158 31.08C276.614 30.632 276.006 30.328 275.334 30.168C274.694 29.976 274.054 29.88 273.414 29.88C272.454 29.88 271.67 30.024 271.062 30.312C270.486 30.6 270.198 30.968 270.198 31.416C270.198 31.832 270.438 32.168 270.918 32.424C271.43 32.68 272.054 32.872 272.79 33C273.526 33.096 274.23 33.192 274.902 33.288C276.758 33.544 278.23 33.992 279.318 34.632C280.406 35.24 280.95 36.328 280.95 37.896C280.95 39.112 280.598 40.328 279.894 41.544C279.222 42.728 278.23 43.704 276.918 44.472C275.638 45.24 274.102 45.624 272.31 45.624ZM296.907 45.624C295.723 45.624 294.635 45.512 293.643 45.288C292.651 45.064 291.835 44.648 291.195 44.04C290.715 43.592 290.395 43.096 290.235 42.552C290.075 41.976 289.995 41.352 289.995 40.68C289.995 39.592 290.091 38.504 290.283 37.416C290.571 35.528 290.827 33.496 291.051 31.32C291.275 29.144 291.387 27.128 291.387 25.272C291.387 24.696 291.355 24.04 291.291 23.304C291.259 22.568 291.195 21.88 291.099 21.24C290.875 21.336 290.651 21.432 290.427 21.528C290.235 21.592 290.059 21.624 289.899 21.624C289.611 21.624 289.419 21.48 289.323 21.192C289.227 20.904 289.179 20.584 289.179 20.232C289.179 19.304 289.387 18.52 289.803 17.88C290.251 17.208 290.971 16.616 291.963 16.104C293.019 15.528 294.395 15.032 296.091 14.616C297.819 14.168 299.563 13.944 301.323 13.944C305.323 13.944 308.459 15.128 310.731 17.496C313.035 19.832 314.187 23.16 314.187 27.48C314.187 29.944 313.803 32.28 313.035 34.488C312.299 36.664 311.195 38.6 309.723 40.296C308.251 41.96 306.443 43.272 304.299 44.232C302.155 45.16 299.691 45.624 296.907 45.624ZM298.443 40.248C299.883 40.248 301.323 40.024 302.763 39.576C304.203 39.128 305.499 38.456 306.651 37.56C307.835 36.664 308.779 35.528 309.483 34.152C310.187 32.744 310.539 31.064 310.539 29.112C310.539 26.904 310.107 25.08 309.243 23.64C308.379 22.2 307.227 21.128 305.787 20.424C304.347 19.72 302.747 19.368 300.987 19.368C300.027 19.368 299.067 19.448 298.107 19.608C297.179 19.768 296.443 19.928 295.899 20.088C295.867 21.56 295.771 23 295.611 24.408C295.483 25.784 295.323 27.128 295.131 28.44C294.939 29.816 294.779 31.16 294.651 32.472C294.555 33.784 294.507 35.08 294.507 36.36C294.507 37.96 294.827 39.016 295.467 39.528C296.139 40.008 297.131 40.248 298.443 40.248ZM328.534 45.624C326.102 45.624 324.198 44.936 322.822 43.56C321.478 42.152 320.806 40.2 320.806 37.704C320.806 35.432 321.302 33.368 322.294 31.512C323.286 29.656 324.614 28.184 326.278 27.096C327.974 25.976 329.83 25.416 331.846 25.416C333.766 25.416 335.302 25.896 336.454 26.856C337.606 27.784 338.182 29.032 338.182 30.6C338.182 31.848 337.798 33 337.03 34.056C336.262 35.112 335.238 35.96 333.958 36.6C332.678 37.208 331.254 37.512 329.686 37.512C327.766 37.512 326.198 37.08 324.982 36.216C325.014 37.688 325.51 38.872 326.47 39.768C327.462 40.664 328.726 41.112 330.262 41.112C331.19 41.112 332.134 40.952 333.094 40.632C334.086 40.28 334.934 39.816 335.638 39.24C336.086 38.856 336.502 38.664 336.886 38.664C337.206 38.664 337.462 38.776 337.654 39C337.878 39.192 337.99 39.448 337.99 39.768C337.99 40.472 337.382 41.4 336.166 42.552C334.022 44.6 331.478 45.624 328.534 45.624ZM329.254 34.344C330.406 34.344 331.366 34.104 332.134 33.624C332.902 33.144 333.286 32.536 333.286 31.8C333.286 31.192 333.03 30.728 332.518 30.408C332.006 30.056 331.302 29.88 330.406 29.88C329.222 29.88 328.182 30.2 327.286 30.84C326.422 31.448 325.798 32.312 325.414 33.432C325.862 33.72 326.438 33.944 327.142 34.104C327.846 34.264 328.55 34.344 329.254 34.344ZM355.393 45.768C354.305 45.768 353.457 45.416 352.849 44.712C352.273 43.976 351.937 42.712 351.841 40.92C351.777 39.032 351.617 37.16 351.361 35.304C351.137 33.416 350.817 31.656 350.401 30.024C349.857 27.656 349.121 25.48 348.193 23.496C347.297 21.48 346.049 19.832 344.449 18.552C344.193 18.328 343.985 18.12 343.825 17.928C343.665 17.704 343.585 17.432 343.585 17.112C343.585 16.408 343.937 15.736 344.641 15.096C345.377 14.456 346.225 14.136 347.185 14.136C348.305 14.136 349.265 14.6 350.065 15.528C350.865 16.456 351.585 17.752 352.225 19.416C353.313 22.04 354.097 24.984 354.577 28.248C355.089 31.48 355.377 34.6 355.441 37.608C355.473 38.504 355.601 39.112 355.825 39.432C356.049 39.72 356.433 39.864 356.977 39.864C358.129 39.864 359.249 39.416 360.337 38.52C361.457 37.624 362.465 36.408 363.361 34.872C364.289 33.336 365.025 31.592 365.569 29.64C366.113 27.688 366.385 25.64 366.385 23.496C366.385 22.184 366.289 21.128 366.097 20.328C365.937 19.496 365.745 18.84 365.521 18.36C365.233 17.72 365.089 17.208 365.089 16.824C365.089 16.344 365.313 15.896 365.761 15.48C366.209 15.064 366.721 14.728 367.297 14.472C367.905 14.184 368.449 14.04 368.929 14.04C369.569 14.04 370.033 14.28 370.321 14.76C370.609 15.208 370.801 15.784 370.897 16.488C370.993 17.192 371.041 17.912 371.041 18.648C371.041 20.856 370.785 23.192 370.273 25.656C369.761 28.12 369.025 30.552 368.065 32.952C367.137 35.32 366.017 37.48 364.705 39.432C363.425 41.352 362.001 42.888 360.433 44.04C358.865 45.192 357.185 45.768 355.393 45.768ZM381.319 21.144C380.423 21.112 379.703 20.84 379.159 20.328C378.615 19.816 378.343 19.096 378.343 18.168C378.375 17.176 378.711 16.376 379.351 15.768C379.991 15.128 380.807 14.824 381.799 14.856C382.727 14.888 383.447 15.16 383.959 15.672C384.503 16.184 384.759 16.904 384.727 17.832C384.695 18.792 384.375 19.592 383.767 20.232C383.159 20.84 382.343 21.144 381.319 21.144ZM381.367 45.48C380.407 45.48 379.655 45.224 379.111 44.712C378.567 44.168 378.295 43.256 378.295 41.976C378.295 41.24 378.359 40.52 378.487 39.816C378.647 39.112 378.823 38.424 379.015 37.752C379.239 37.048 379.415 36.328 379.543 35.592C379.703 34.856 379.783 34.072 379.783 33.24C379.783 32.664 379.703 32.12 379.543 31.608C379.383 31.064 379.031 30.664 378.487 30.408C378.071 30.184 377.703 29.96 377.383 29.736C377.095 29.48 376.951 29.16 376.951 28.776C376.951 28.328 377.159 27.848 377.575 27.336C377.991 26.824 378.535 26.392 379.207 26.04C379.911 25.656 380.631 25.464 381.367 25.464C382.167 25.464 382.743 25.672 383.095 26.088C383.479 26.504 383.735 27.032 383.863 27.672C383.991 28.312 384.055 28.968 384.055 29.64C384.055 30.664 383.975 31.672 383.815 32.664C383.655 33.624 383.495 34.52 383.335 35.352C383.207 35.96 383.111 36.52 383.047 37.032C382.983 37.544 382.951 38.024 382.951 38.472C382.951 39.272 383.143 39.88 383.527 40.296C383.911 40.68 384.455 41.048 385.159 41.4C385.447 41.56 385.591 41.8 385.591 42.12C385.591 42.376 385.463 42.776 385.207 43.32C384.951 43.864 384.503 44.36 383.863 44.808C383.255 45.256 382.423 45.48 381.367 45.48ZM398.985 45.624C397.065 45.624 395.513 45.032 394.329 43.848C393.177 42.632 392.601 40.904 392.601 38.664C392.601 37.064 392.905 35.48 393.513 33.912C394.153 32.312 395.065 30.872 396.249 29.592C397.433 28.312 398.857 27.288 400.521 26.52C402.185 25.752 404.057 25.368 406.137 25.368C408.057 25.368 409.689 25.704 411.033 26.376C412.409 27.016 413.097 27.896 413.097 29.016C413.097 29.304 413.065 29.688 413.001 30.168C412.937 30.616 412.857 30.984 412.761 31.272C412.665 31.528 412.521 31.768 412.329 31.992C412.169 32.184 411.945 32.28 411.657 32.28C411.529 32.28 411.289 32.232 410.937 32.136C410.809 32.808 410.713 33.464 410.649 34.104C410.585 34.744 410.553 35.384 410.553 36.024C410.553 37.24 410.729 38.328 411.081 39.288C411.465 40.216 412.201 40.792 413.289 41.016C413.577 41.08 413.801 41.176 413.961 41.304C414.153 41.432 414.249 41.704 414.249 42.12C414.249 42.472 414.153 42.92 413.961 43.464C413.801 44.008 413.465 44.504 412.953 44.952C412.473 45.368 411.769 45.576 410.841 45.576C409.593 45.576 408.633 45.128 407.961 44.232C407.289 43.304 406.953 41.992 406.953 40.296C406.089 41.864 404.985 43.144 403.641 44.136C402.329 45.128 400.777 45.624 398.985 45.624ZM400.521 40.632C401.801 40.632 402.921 40.232 403.881 39.432C404.873 38.632 405.641 37.624 406.185 36.408C406.537 35.64 406.809 34.808 407.001 33.912C407.193 32.984 407.321 32.072 407.385 31.176C406.841 30.92 406.217 30.712 405.513 30.552C404.809 30.392 404.073 30.312 403.305 30.312C401.353 30.312 399.737 30.888 398.457 32.04C397.209 33.192 396.585 34.632 396.585 36.36C396.585 37.64 396.937 38.68 397.641 39.48C398.345 40.248 399.305 40.632 400.521 40.632ZM424.661 21.144C423.765 21.112 423.045 20.84 422.501 20.328C421.957 19.816 421.701 19.096 421.733 18.168C421.765 17.176 422.101 16.376 422.741 15.768C423.381 15.128 424.197 14.824 425.189 14.856C426.117 14.888 426.837 15.16 427.349 15.672C427.861 16.184 428.101 16.904 428.069 17.832C428.037 18.792 427.717 19.592 427.109 20.232C426.501 20.84 425.685 21.144 424.661 21.144ZM417.509 58.248C416.261 58.248 415.189 57.912 414.293 57.24C413.365 56.568 412.901 55.624 412.901 54.408C412.901 53.448 413.157 52.696 413.669 52.152C414.149 51.608 414.661 51.336 415.205 51.336C415.589 51.336 415.957 51.496 416.309 51.816C416.597 52.104 416.933 52.328 417.317 52.488C417.669 52.648 418.117 52.728 418.661 52.728C419.845 52.728 420.709 52.328 421.253 51.528C421.829 50.76 422.229 49.768 422.453 48.552C422.869 46.504 423.125 44.584 423.221 42.792C423.317 41 423.365 39.096 423.365 37.08C423.365 35.064 423.285 33.528 423.125 32.472C422.997 31.384 422.565 30.664 421.829 30.312C421.349 30.056 420.997 29.832 420.773 29.64C420.549 29.448 420.437 29.192 420.437 28.872C420.437 28.392 420.645 27.896 421.061 27.384C421.509 26.872 422.085 26.44 422.789 26.088C423.493 25.736 424.245 25.56 425.045 25.56C425.973 25.56 426.629 25.8 427.013 26.28C427.429 26.76 427.685 27.368 427.781 28.104C427.909 28.84 427.957 29.624 427.925 30.456C427.893 33.88 427.717 37.144 427.397 40.248C427.109 43.32 426.549 46.216 425.717 48.936C424.885 51.848 423.797 54.12 422.453 55.752C421.141 57.416 419.493 58.248 417.509 58.248ZM443.921 45.624C441.489 45.624 439.585 44.936 438.209 43.56C436.865 42.152 436.193 40.2 436.193 37.704C436.193 35.432 436.689 33.368 437.681 31.512C438.673 29.656 440.001 28.184 441.665 27.096C443.361 25.976 445.217 25.416 447.233 25.416C449.153 25.416 450.689 25.896 451.841 26.856C452.993 27.784 453.569 29.032 453.569 30.6C453.569 31.848 453.185 33 452.417 34.056C451.649 35.112 450.625 35.96 449.345 36.6C448.065 37.208 446.641 37.512 445.073 37.512C443.153 37.512 441.585 37.08 440.369 36.216C440.401 37.688 440.897 38.872 441.857 39.768C442.849 40.664 444.113 41.112 445.649 41.112C446.577 41.112 447.521 40.952 448.481 40.632C449.473 40.28 450.321 39.816 451.025 39.24C451.473 38.856 451.889 38.664 452.273 38.664C452.593 38.664 452.849 38.776 453.041 39C453.265 39.192 453.377 39.448 453.377 39.768C453.377 40.472 452.769 41.4 451.553 42.552C449.409 44.6 446.865 45.624 443.921 45.624ZM444.641 34.344C445.793 34.344 446.753 34.104 447.521 33.624C448.289 33.144 448.673 32.536 448.673 31.8C448.673 31.192 448.417 30.728 447.905 30.408C447.393 30.056 446.689 29.88 445.793 29.88C444.609 29.88 443.569 30.2 442.673 30.84C441.809 31.448 441.185 32.312 440.801 33.432C441.249 33.72 441.825 33.944 442.529 34.104C443.233 34.264 443.937 34.344 444.641 34.344Z" fill="#00A0B1"/>
<mask id="path-2-inside-1_102_317" fill="white">
<path d="M61.1129 19.6836L61.1316 19.6655C62.2273 18.5689 62.2626 16.821 61.2103 15.7684C60.964 15.5227 60.6713 15.3283 60.3493 15.1964C60.0273 15.0645 59.6823 14.9978 59.3343 15.0001C58.9581 15.0007 58.5858 15.0758 58.2389 15.2212C57.8919 15.3666 57.5773 15.5794 57.313 15.8471L54.9079 18.4172L46.3055 15.8419L44.5225 17.6255C44.4121 17.7358 44.3244 17.8667 44.2647 18.0109C44.2049 18.1551 44.1741 18.3096 44.1741 18.4657C44.1741 18.6218 44.2049 18.7763 44.2647 18.9205C44.3244 19.0647 44.4121 19.1957 44.5225 19.3059L44.6006 19.3841L50.8142 22.8036L49.9051 23.7902C47.8922 22.4887 45.5464 21.7958 43.1494 21.7947C42.6874 21.7954 42.2258 21.8215 41.7666 21.8729L41.7235 21.8251C41.7032 21.8433 41.6804 21.8638 41.658 21.8846C36.4939 22.4971 32.2434 26.258 31.0604 31.451C30.6981 33.04 30.6525 34.6847 30.926 36.2913C31.1995 37.898 31.7869 39.4349 32.6545 40.8145C33.5222 42.1941 34.6531 43.3892 35.9827 44.3316C37.3123 45.274 38.8146 45.9453 40.4037 46.307C41.3113 46.5142 42.2394 46.619 43.1704 46.6195C48.9936 46.6195 53.965 42.6495 55.2597 36.9651C55.4885 35.9648 55.5931 34.9401 55.5711 33.9142C55.6431 33.632 55.6251 33.3343 55.5196 33.0629C55.3415 31.1215 54.7061 29.2499 53.6654 27.6013C53.5371 27.3974 53.402 27.1989 53.2631 27.0049L54.186 26.1541L57.6334 32.4176L57.7124 32.4963C57.9351 32.7186 58.2369 32.8434 58.5516 32.8434C58.8662 32.8433 59.168 32.7184 59.3907 32.496L61.1747 30.7123L58.5823 22.0512L61.1129 19.6836ZM37.161 42.7801L36.9568 43.1158C35.2939 41.9553 33.989 40.3525 33.19 38.4888C32.3909 36.6251 32.1296 34.5749 32.4356 32.5703C33.1305 32.7576 33.8321 33.0343 34.1015 33.2268C34.0914 33.2985 34.0802 33.3712 34.069 33.4436C33.9648 34.1198 33.8074 35.1413 34.64 35.7473C35.3686 36.2772 36.0354 35.7816 36.3396 35.5254C36.4617 35.6239 36.5947 35.7218 36.7316 35.8229C36.9451 35.9803 37.3218 36.2582 37.4571 36.4273C37.4143 36.5767 37.3511 36.7533 37.2896 36.9253C37.0477 37.6007 36.7976 38.2987 37.2631 38.7891C37.4236 38.9865 37.9034 39.8939 38.026 40.2207C38.0234 40.3295 38.0315 40.4534 38.0419 40.6147C38.063 40.8453 38.0665 41.0772 38.0523 41.3083C38.0515 41.3081 37.1064 42.4983 37.161 42.7801ZM43.1704 45.0607C41.3623 45.0592 39.5829 44.609 37.9917 43.7504C38.7523 43.1072 39.4105 42.0741 39.4204 42.0574C39.6511 41.6678 39.6379 41.1503 39.5968 40.5142C39.5901 40.4077 39.5823 40.3162 39.5838 40.2575C39.5827 40.2867 39.5784 40.3157 39.5711 40.344C39.6961 39.791 38.9443 38.5179 38.5827 37.9755C38.6201 37.8321 38.6996 37.6102 38.7565 37.4507C38.8553 37.1913 38.9389 36.9262 39.0066 36.6569C39.2214 35.7225 38.3536 35.0825 37.6564 34.5684C37.4824 34.448 37.3167 34.316 37.1605 34.1733C36.8467 33.8424 36.3181 33.587 35.5468 34.1611C35.5606 33.9962 35.5894 33.8093 35.6091 33.6805C35.6351 33.5127 35.6603 33.3452 35.6765 33.1838C35.766 32.2796 34.7898 31.5619 32.7801 31.0483C33.3074 29.2832 34.2784 27.6827 35.6005 26.3997C36.9225 25.1167 38.5513 24.1941 40.3314 23.7198C40.1536 24.156 40.038 24.615 39.988 25.0833C39.9545 25.386 39.9111 25.66 39.8729 25.9013C39.7205 26.8648 39.5475 27.9568 40.9312 28.573C41.4691 28.8176 42.0458 28.9655 42.6351 29.0099C42.8049 29.024 42.9737 29.0484 43.1405 29.0829C43.1875 29.3173 43.1577 29.7986 43.1454 29.9963C43.1283 30.2724 43.1099 30.5701 43.1982 30.8197C43.3122 31.4499 43.8629 33.7527 46.0044 35.238C45.6861 35.4346 45.3384 35.5789 44.9745 35.6656C44.7942 35.7002 44.6095 35.7233 44.4308 35.7456C43.6996 35.8374 42.6981 35.9623 42.2792 37.1172C42.0929 37.6277 42.2137 37.9994 42.348 38.2212C42.6815 38.7727 43.3304 38.8597 43.8042 38.9231C43.8806 38.9332 43.9879 38.9478 44.0524 38.9605C44.3456 39.1753 45.261 39.7837 46.21 39.7837C46.6711 39.7908 47.1181 39.6248 47.4628 39.3184C47.6189 39.186 48.3593 39.1946 48.7157 39.1992C49.47 39.2081 50.1823 39.2169 50.6369 38.7573C50.7475 38.6452 50.8338 38.5114 50.8905 38.3645C50.9472 38.2175 50.973 38.0604 50.9663 37.903C50.9502 37.252 52.1962 36.5519 53.1977 35.9893C53.4393 35.8537 53.6863 35.7142 53.9263 35.5695C53.8814 35.9197 53.8193 36.2692 53.7401 36.6182C53.2047 39.0196 51.8648 41.1659 49.9425 42.7014C48.0201 44.2369 45.6307 45.0693 43.1704 45.0607ZM52.3461 28.4305C53.3266 29.983 53.8946 31.7602 53.9964 33.5936C53.7704 33.8798 52.9472 34.3427 52.4342 34.6308C51.0935 35.3841 49.5859 36.2312 49.4222 37.6315C49.2258 37.6474 48.9429 37.6435 48.7349 37.6412C47.9366 37.6324 47.0341 37.6206 46.4341 38.1482C46.1746 38.376 45.3849 38.0253 44.934 37.6739C44.6815 37.4767 44.3796 37.4287 44.0593 37.3853C44.2458 37.3437 44.4345 37.3129 44.6246 37.2931C44.8183 37.2687 45.0381 37.2413 45.2683 37.1972C45.967 37.0631 47.788 36.2987 47.9397 35.2884C47.971 35.0845 47.9364 34.8759 47.841 34.693C47.7455 34.5101 47.5942 34.3624 47.409 34.2715C45.0893 33.0459 44.7334 30.5685 44.7196 30.4669L44.6924 30.2479C44.6952 30.1965 44.6986 30.1409 44.7014 30.0931C44.7477 29.3497 44.8334 27.9656 43.7414 27.6313C43.4337 27.5426 43.1179 27.4853 42.7987 27.4601C42.3725 27.4332 41.9548 27.3282 41.5666 27.1503C41.378 27.0663 41.3388 27.011 41.3388 27.011C41.2912 26.9136 41.3617 26.4699 41.4131 26.146C41.4542 25.8873 41.5004 25.5943 41.538 25.255C41.6391 24.3432 42.0064 23.7707 42.3568 23.3837C42.6191 23.365 42.8831 23.3532 43.1499 23.3532C45.1552 23.3545 47.1214 23.9087 48.8322 24.9549L48.7543 25.0394C48.6191 25.1757 48.4943 25.3219 48.381 25.4768L45.5943 24.7554L44.3724 25.9777C44.2713 26.0786 44.1912 26.1985 44.1365 26.3304C44.0818 26.4623 44.0536 26.6036 44.0536 26.7464C44.0536 26.8892 44.0817 27.0306 44.1363 27.1625C44.191 27.2944 44.2711 27.4143 44.3721 27.5152L44.4596 27.603L47.6695 29.2321L47.7849 29.3474L49.4139 32.5578L49.5017 32.6454C49.6026 32.7464 49.7224 32.8265 49.8543 32.8812C49.9861 32.9359 50.1275 32.964 50.2702 32.9641C50.413 32.9641 50.5544 32.9361 50.6863 32.8815C50.8182 32.8269 50.938 32.7468 51.039 32.6459L52.2616 31.4237L51.5255 28.5798C51.6715 28.4717 51.8095 28.3533 51.9385 28.2254L52.1053 28.0719C52.1869 28.1899 52.2689 28.3079 52.3461 28.4305ZM59.4146 30.2672L58.6498 31.032L54.5923 23.6591L50.8717 27.0893L50.8496 27.1103C50.6841 27.2769 50.4925 27.4153 50.2823 27.52L49.7139 27.8005L50.5298 30.9512L50.4083 31.0728L49.0624 28.4208L48.5964 27.9543L45.9447 26.609L46.066 26.4876L49.1713 27.2916L49.4487 26.7139C49.5545 26.4971 49.6961 26.2995 49.8675 26.1297L53.3083 22.3974L45.9852 18.3671L46.75 17.6021L55.3864 20.1873L58.4231 16.9415C58.6644 16.6986 58.9919 16.561 59.3343 16.5587C59.4775 16.5569 59.6196 16.5836 59.7524 16.6371C59.8852 16.6906 60.0061 16.7699 60.1081 16.8704C60.5505 17.3127 60.518 18.0663 60.0375 18.5552L56.8122 21.5721L59.4146 30.2672Z"/>
</mask>
<path d="M61.1129 19.6836L61.1316 19.6655C62.2273 18.5689 62.2626 16.821 61.2103 15.7684C60.964 15.5227 60.6713 15.3283 60.3493 15.1964C60.0273 15.0645 59.6823 14.9978 59.3343 15.0001C58.9581 15.0007 58.5858 15.0758 58.2389 15.2212C57.8919 15.3666 57.5773 15.5794 57.313 15.8471L54.9079 18.4172L46.3055 15.8419L44.5225 17.6255C44.4121 17.7358 44.3244 17.8667 44.2647 18.0109C44.2049 18.1551 44.1741 18.3096 44.1741 18.4657C44.1741 18.6218 44.2049 18.7763 44.2647 18.9205C44.3244 19.0647 44.4121 19.1957 44.5225 19.3059L44.6006 19.3841L50.8142 22.8036L49.9051 23.7902C47.8922 22.4887 45.5464 21.7958 43.1494 21.7947C42.6874 21.7954 42.2258 21.8215 41.7666 21.8729L41.7235 21.8251C41.7032 21.8433 41.6804 21.8638 41.658 21.8846C36.4939 22.4971 32.2434 26.258 31.0604 31.451C30.6981 33.04 30.6525 34.6847 30.926 36.2913C31.1995 37.898 31.7869 39.4349 32.6545 40.8145C33.5222 42.1941 34.6531 43.3892 35.9827 44.3316C37.3123 45.274 38.8146 45.9453 40.4037 46.307C41.3113 46.5142 42.2394 46.619 43.1704 46.6195C48.9936 46.6195 53.965 42.6495 55.2597 36.9651C55.4885 35.9648 55.5931 34.9401 55.5711 33.9142C55.6431 33.632 55.6251 33.3343 55.5196 33.0629C55.3415 31.1215 54.7061 29.2499 53.6654 27.6013C53.5371 27.3974 53.402 27.1989 53.2631 27.0049L54.186 26.1541L57.6334 32.4176L57.7124 32.4963C57.9351 32.7186 58.2369 32.8434 58.5516 32.8434C58.8662 32.8433 59.168 32.7184 59.3907 32.496L61.1747 30.7123L58.5823 22.0512L61.1129 19.6836ZM37.161 42.7801L36.9568 43.1158C35.2939 41.9553 33.989 40.3525 33.19 38.4888C32.3909 36.6251 32.1296 34.5749 32.4356 32.5703C33.1305 32.7576 33.8321 33.0343 34.1015 33.2268C34.0914 33.2985 34.0802 33.3712 34.069 33.4436C33.9648 34.1198 33.8074 35.1413 34.64 35.7473C35.3686 36.2772 36.0354 35.7816 36.3396 35.5254C36.4617 35.6239 36.5947 35.7218 36.7316 35.8229C36.9451 35.9803 37.3218 36.2582 37.4571 36.4273C37.4143 36.5767 37.3511 36.7533 37.2896 36.9253C37.0477 37.6007 36.7976 38.2987 37.2631 38.7891C37.4236 38.9865 37.9034 39.8939 38.026 40.2207C38.0234 40.3295 38.0315 40.4534 38.0419 40.6147C38.063 40.8453 38.0665 41.0772 38.0523 41.3083C38.0515 41.3081 37.1064 42.4983 37.161 42.7801ZM43.1704 45.0607C41.3623 45.0592 39.5829 44.609 37.9917 43.7504C38.7523 43.1072 39.4105 42.0741 39.4204 42.0574C39.6511 41.6678 39.6379 41.1503 39.5968 40.5142C39.5901 40.4077 39.5823 40.3162 39.5838 40.2575C39.5827 40.2867 39.5784 40.3157 39.5711 40.344C39.6961 39.791 38.9443 38.5179 38.5827 37.9755C38.6201 37.8321 38.6996 37.6102 38.7565 37.4507C38.8553 37.1913 38.9389 36.9262 39.0066 36.6569C39.2214 35.7225 38.3536 35.0825 37.6564 34.5684C37.4824 34.448 37.3167 34.316 37.1605 34.1733C36.8467 33.8424 36.3181 33.587 35.5468 34.1611C35.5606 33.9962 35.5894 33.8093 35.6091 33.6805C35.6351 33.5127 35.6603 33.3452 35.6765 33.1838C35.766 32.2796 34.7898 31.5619 32.7801 31.0483C33.3074 29.2832 34.2784 27.6827 35.6005 26.3997C36.9225 25.1167 38.5513 24.1941 40.3314 23.7198C40.1536 24.156 40.038 24.615 39.988 25.0833C39.9545 25.386 39.9111 25.66 39.8729 25.9013C39.7205 26.8648 39.5475 27.9568 40.9312 28.573C41.4691 28.8176 42.0458 28.9655 42.6351 29.0099C42.8049 29.024 42.9737 29.0484 43.1405 29.0829C43.1875 29.3173 43.1577 29.7986 43.1454 29.9963C43.1283 30.2724 43.1099 30.5701 43.1982 30.8197C43.3122 31.4499 43.8629 33.7527 46.0044 35.238C45.6861 35.4346 45.3384 35.5789 44.9745 35.6656C44.7942 35.7002 44.6095 35.7233 44.4308 35.7456C43.6996 35.8374 42.6981 35.9623 42.2792 37.1172C42.0929 37.6277 42.2137 37.9994 42.348 38.2212C42.6815 38.7727 43.3304 38.8597 43.8042 38.9231C43.8806 38.9332 43.9879 38.9478 44.0524 38.9605C44.3456 39.1753 45.261 39.7837 46.21 39.7837C46.6711 39.7908 47.1181 39.6248 47.4628 39.3184C47.6189 39.186 48.3593 39.1946 48.7157 39.1992C49.47 39.2081 50.1823 39.2169 50.6369 38.7573C50.7475 38.6452 50.8338 38.5114 50.8905 38.3645C50.9472 38.2175 50.973 38.0604 50.9663 37.903C50.9502 37.252 52.1962 36.5519 53.1977 35.9893C53.4393 35.8537 53.6863 35.7142 53.9263 35.5695C53.8814 35.9197 53.8193 36.2692 53.7401 36.6182C53.2047 39.0196 51.8648 41.1659 49.9425 42.7014C48.0201 44.2369 45.6307 45.0693 43.1704 45.0607ZM52.3461 28.4305C53.3266 29.983 53.8946 31.7602 53.9964 33.5936C53.7704 33.8798 52.9472 34.3427 52.4342 34.6308C51.0935 35.3841 49.5859 36.2312 49.4222 37.6315C49.2258 37.6474 48.9429 37.6435 48.7349 37.6412C47.9366 37.6324 47.0341 37.6206 46.4341 38.1482C46.1746 38.376 45.3849 38.0253 44.934 37.6739C44.6815 37.4767 44.3796 37.4287 44.0593 37.3853C44.2458 37.3437 44.4345 37.3129 44.6246 37.2931C44.8183 37.2687 45.0381 37.2413 45.2683 37.1972C45.967 37.0631 47.788 36.2987 47.9397 35.2884C47.971 35.0845 47.9364 34.8759 47.841 34.693C47.7455 34.5101 47.5942 34.3624 47.409 34.2715C45.0893 33.0459 44.7334 30.5685 44.7196 30.4669L44.6924 30.2479C44.6952 30.1965 44.6986 30.1409 44.7014 30.0931C44.7477 29.3497 44.8334 27.9656 43.7414 27.6313C43.4337 27.5426 43.1179 27.4853 42.7987 27.4601C42.3725 27.4332 41.9548 27.3282 41.5666 27.1503C41.378 27.0663 41.3388 27.011 41.3388 27.011C41.2912 26.9136 41.3617 26.4699 41.4131 26.146C41.4542 25.8873 41.5004 25.5943 41.538 25.255C41.6391 24.3432 42.0064 23.7707 42.3568 23.3837C42.6191 23.365 42.8831 23.3532 43.1499 23.3532C45.1552 23.3545 47.1214 23.9087 48.8322 24.9549L48.7543 25.0394C48.6191 25.1757 48.4943 25.3219 48.381 25.4768L45.5943 24.7554L44.3724 25.9777C44.2713 26.0786 44.1912 26.1985 44.1365 26.3304C44.0818 26.4623 44.0536 26.6036 44.0536 26.7464C44.0536 26.8892 44.0817 27.0306 44.1363 27.1625C44.191 27.2944 44.2711 27.4143 44.3721 27.5152L44.4596 27.603L47.6695 29.2321L47.7849 29.3474L49.4139 32.5578L49.5017 32.6454C49.6026 32.7464 49.7224 32.8265 49.8543 32.8812C49.9861 32.9359 50.1275 32.964 50.2702 32.9641C50.413 32.9641 50.5544 32.9361 50.6863 32.8815C50.8182 32.8269 50.938 32.7468 51.039 32.6459L52.2616 31.4237L51.5255 28.5798C51.6715 28.4717 51.8095 28.3533 51.9385 28.2254L52.1053 28.0719C52.1869 28.1899 52.2689 28.3079 52.3461 28.4305ZM59.4146 30.2672L58.6498 31.032L54.5923 23.6591L50.8717 27.0893L50.8496 27.1103C50.6841 27.2769 50.4925 27.4153 50.2823 27.52L49.7139 27.8005L50.5298 30.9512L50.4083 31.0728L49.0624 28.4208L48.5964 27.9543L45.9447 26.609L46.066 26.4876L49.1713 27.2916L49.4487 26.7139C49.5545 26.4971 49.6961 26.2995 49.8675 26.1297L53.3083 22.3974L45.9852 18.3671L46.75 17.6021L55.3864 20.1873L58.4231 16.9415C58.6644 16.6986 58.9919 16.561 59.3343 16.5587C59.4775 16.5569 59.6196 16.5836 59.7524 16.6371C59.8852 16.6906 60.0061 16.7699 60.1081 16.8704C60.5505 17.3127 60.518 18.0663 60.0375 18.5552L56.8122 21.5721L59.4146 30.2672Z" fill="#00A0B1" stroke="#00A0B1" stroke-width="8" mask="url(#path-2-inside-1_102_317)"/>
<path d="M7.58594 71.25C7.58594 71.6302 7.51302 71.987 7.36719 72.3203C7.22656 72.6536 7.03125 72.9453 6.78125 73.1953C6.53125 73.4453 6.23698 73.6432 5.89844 73.7891C5.5651 73.9297 5.20833 74 4.82812 74H1.28125V62.7969H4.82812C5.20833 62.7969 5.5651 62.8698 5.89844 63.0156C6.23698 63.1562 6.53125 63.3516 6.78125 63.6016C7.03125 63.8516 7.22656 64.1458 7.36719 64.4844C7.51302 64.8177 7.58594 65.1745 7.58594 65.5547V71.25ZM6.57812 65.5547C6.57812 65.3047 6.53125 65.0729 6.4375 64.8594C6.34375 64.6406 6.21354 64.4505 6.04688 64.2891C5.88542 64.1224 5.69531 63.9922 5.47656 63.8984C5.26302 63.8047 5.03125 63.7578 4.78125 63.7578H2.28906V73.0391H4.78125C5.03125 73.0391 5.26302 72.9922 5.47656 72.8984C5.69531 72.8047 5.88542 72.6771 6.04688 72.5156C6.21354 72.3542 6.34375 72.1667 6.4375 71.9531C6.53125 71.7344 6.57812 71.5 6.57812 71.25V65.5547ZM16.2878 71.8047C16.2878 72.1276 16.2253 72.4323 16.1003 72.7188C15.9805 73.0052 15.8139 73.2552 15.6003 73.4688C15.3868 73.6823 15.1368 73.8516 14.8503 73.9766C14.5639 74.0964 14.2592 74.1562 13.9362 74.1562H13.2956C12.9727 74.1562 12.668 74.0964 12.3816 73.9766C12.0951 73.8516 11.8451 73.6823 11.6316 73.4688C11.418 73.2552 11.2487 73.0052 11.1237 72.7188C11.004 72.4323 10.9441 72.1276 10.9441 71.8047V68.1953C10.9441 67.8724 11.004 67.5677 11.1237 67.2812C11.2487 66.9948 11.418 66.7448 11.6316 66.5312C11.8451 66.3177 12.0951 66.151 12.3816 66.0312C12.668 65.9062 12.9727 65.8438 13.2956 65.8438H13.9362C14.2592 65.8438 14.5639 65.9062 14.8503 66.0312C15.1368 66.151 15.3868 66.3177 15.6003 66.5312C15.8139 66.7448 15.9805 66.9948 16.1003 67.2812C16.2253 67.5677 16.2878 67.8724 16.2878 68.1953V70.0781H11.905V71.8594C11.905 72.0521 11.9415 72.2344 12.0144 72.4062C12.0873 72.5729 12.1862 72.7188 12.3112 72.8438C12.4362 72.9688 12.5821 73.0677 12.7487 73.1406C12.9206 73.2135 13.1029 73.25 13.2956 73.25H13.9362C14.129 73.25 14.3086 73.2135 14.4753 73.1406C14.6472 73.0677 14.7956 72.9688 14.9206 72.8438C15.0456 72.7188 15.1446 72.5729 15.2175 72.4062C15.2904 72.2344 15.3269 72.0521 15.3269 71.8594V71.3281L16.2878 71.4844V71.8047ZM15.3269 68.1406C15.3269 67.9479 15.2904 67.7682 15.2175 67.6016C15.1446 67.4297 15.0456 67.2812 14.9206 67.1562C14.7956 67.0312 14.6472 66.9323 14.4753 66.8594C14.3086 66.7865 14.129 66.75 13.9362 66.75H13.2956C13.1029 66.75 12.9206 66.7865 12.7487 66.8594C12.5821 66.9323 12.4362 67.0312 12.3112 67.1562C12.1862 67.2812 12.0873 67.4297 12.0144 67.6016C11.9415 67.7682 11.905 67.9479 11.905 68.1406V69.3281H15.3269V68.1406ZM24.9897 71.9688C24.9897 72.2917 24.9246 72.5885 24.7944 72.8594C24.6642 73.125 24.4871 73.3542 24.2631 73.5469C24.0392 73.7396 23.7787 73.8906 23.4819 74C23.1902 74.1042 22.8829 74.1562 22.56 74.1562H21.9194C21.5965 74.1562 21.2866 74.0964 20.9897 73.9766C20.698 73.8516 20.4402 73.6823 20.2162 73.4688C19.9975 73.2552 19.8204 73.0052 19.685 72.7188C19.5548 72.4323 19.4897 72.1276 19.4897 71.8047V71.4844L20.4506 71.3281V71.8594C20.4506 72.0521 20.4897 72.2344 20.5678 72.4062C20.6511 72.5729 20.7605 72.7188 20.8959 72.8438C21.0314 72.9688 21.1876 73.0677 21.3647 73.1406C21.5418 73.2135 21.7267 73.25 21.9194 73.25H22.56C22.7527 73.25 22.9376 73.2214 23.1147 73.1641C23.2918 73.1068 23.448 73.026 23.5834 72.9219C23.7241 72.8125 23.8334 72.6823 23.9116 72.5312C23.9949 72.3802 24.0366 72.2083 24.0366 72.0156C24.0366 71.7292 23.9741 71.4948 23.8491 71.3125C23.7241 71.1302 23.5574 70.9792 23.3491 70.8594C23.1459 70.7344 22.9116 70.6328 22.6459 70.5547C22.3855 70.4714 22.1173 70.3906 21.8412 70.3125C21.5652 70.2292 21.2944 70.1354 21.0287 70.0312C20.7683 69.9271 20.534 69.7917 20.3256 69.625C20.1225 69.4531 19.9584 69.2396 19.8334 68.9844C19.7084 68.7292 19.6459 68.4115 19.6459 68.0312C19.6459 67.7083 19.7084 67.4141 19.8334 67.1484C19.9584 66.8776 20.1277 66.6458 20.3412 66.4531C20.5548 66.2604 20.8022 66.112 21.0834 66.0078C21.3699 65.8984 21.6746 65.8438 21.9975 65.8438H22.56C22.8829 65.8438 23.1876 65.9062 23.4741 66.0312C23.7605 66.151 24.0105 66.3177 24.2241 66.5312C24.4376 66.7448 24.6043 66.9948 24.7241 67.2812C24.8491 67.5677 24.9116 67.8724 24.9116 68.1953V68.2266L23.9506 68.3828V68.1406C23.9506 67.9479 23.9142 67.7682 23.8412 67.6016C23.7683 67.4297 23.6694 67.2812 23.5444 67.1562C23.4194 67.0312 23.2709 66.9323 23.0991 66.8594C22.9324 66.7865 22.7527 66.75 22.56 66.75H21.9975C21.8048 66.75 21.6225 66.7786 21.4506 66.8359C21.284 66.8932 21.1381 66.9766 21.0131 67.0859C20.8881 67.1901 20.7892 67.3177 20.7162 67.4688C20.6433 67.6198 20.6069 67.7917 20.6069 67.9844C20.6069 68.2604 20.6694 68.487 20.7944 68.6641C20.9194 68.8359 21.0834 68.9818 21.2866 69.1016C21.4949 69.2214 21.7293 69.3229 21.9897 69.4062C22.2553 69.4844 22.5235 69.5677 22.7944 69.6562C23.0704 69.7396 23.3386 69.8359 23.5991 69.9453C23.8647 70.0547 24.0991 70.1953 24.3022 70.3672C24.5105 70.5391 24.6772 70.7552 24.8022 71.0156C24.9272 71.2708 24.9897 71.5885 24.9897 71.9688ZM33.4572 71.8047C33.4572 72.1276 33.3947 72.4323 33.2697 72.7188C33.1499 73.0052 32.9832 73.2552 32.7697 73.4688C32.5561 73.6823 32.3061 73.8516 32.0197 73.9766C31.7332 74.0964 31.4285 74.1562 31.1056 74.1562H30.465C30.1421 74.1562 29.8374 74.0964 29.5509 73.9766C29.2645 73.8516 29.0145 73.6823 28.8009 73.4688C28.5874 73.2552 28.4181 73.0052 28.2931 72.7188C28.1733 72.4323 28.1134 72.1276 28.1134 71.8047V68.1953C28.1134 67.8724 28.1733 67.5677 28.2931 67.2812C28.4181 66.9948 28.5874 66.7448 28.8009 66.5312C29.0145 66.3177 29.2645 66.151 29.5509 66.0312C29.8374 65.9062 30.1421 65.8438 30.465 65.8438H31.1056C31.4285 65.8438 31.7332 65.9062 32.0197 66.0312C32.3061 66.151 32.5561 66.3177 32.7697 66.5312C32.9832 66.7448 33.1499 66.9948 33.2697 67.2812C33.3947 67.5677 33.4572 67.8724 33.4572 68.1953V68.5156L32.4963 68.6719V68.1406C32.4963 67.9479 32.4598 67.7682 32.3869 67.6016C32.314 67.4297 32.215 67.2812 32.09 67.1562C31.965 67.0312 31.8166 66.9323 31.6447 66.8594C31.478 66.7865 31.2983 66.75 31.1056 66.75H30.465C30.2723 66.75 30.09 66.7865 29.9181 66.8594C29.7515 66.9323 29.6056 67.0312 29.4806 67.1562C29.3556 67.2812 29.2567 67.4297 29.1838 67.6016C29.1108 67.7682 29.0744 67.9479 29.0744 68.1406V71.8594C29.0744 72.0521 29.1108 72.2344 29.1838 72.4062C29.2567 72.5729 29.3556 72.7188 29.4806 72.8438C29.6056 72.9688 29.7515 73.0677 29.9181 73.1406C30.09 73.2135 30.2723 73.25 30.465 73.25H31.1056C31.2983 73.25 31.478 73.2135 31.6447 73.1406C31.8166 73.0677 31.965 72.9688 32.09 72.8438C32.215 72.7188 32.314 72.5729 32.3869 72.4062C32.4598 72.2344 32.4963 72.0521 32.4963 71.8594V71.3281L33.4572 71.4844V71.8047ZM41.6825 74L41.1512 73.1875C40.9325 73.4844 40.6591 73.7214 40.3309 73.8984C40.0028 74.0703 39.6434 74.1562 39.2528 74.1562H39.0106C38.6877 74.1562 38.383 74.0964 38.0966 73.9766C37.8101 73.8516 37.5601 73.6823 37.3466 73.4688C37.133 73.2552 36.9637 73.0052 36.8387 72.7188C36.719 72.4323 36.6591 72.1276 36.6591 71.8047V66H37.62V71.8594C37.62 72.0521 37.6565 72.2344 37.7294 72.4062C37.8023 72.5729 37.9012 72.7188 38.0262 72.8438C38.1512 72.9688 38.2971 73.0677 38.4637 73.1406C38.6356 73.2135 38.8179 73.25 39.0106 73.25H39.6512C39.844 73.25 40.0236 73.2135 40.1903 73.1406C40.3622 73.0677 40.5106 72.9688 40.6356 72.8438C40.7606 72.7188 40.8596 72.5729 40.9325 72.4062C41.0054 72.2344 41.0419 72.0521 41.0419 71.8594V66H42.0028V74H41.6825ZM50.5484 71.8047C50.5484 72.1276 50.4859 72.4323 50.3609 72.7188C50.2411 73.0052 50.0745 73.2552 49.8609 73.4688C49.6474 73.6823 49.3974 73.8516 49.1109 73.9766C48.8245 74.0964 48.5198 74.1562 48.1969 74.1562H47.5563C47.2333 74.1562 46.9286 74.0964 46.6422 73.9766C46.3557 73.8516 46.1057 73.6823 45.8922 73.4688C45.6786 73.2552 45.5094 73.0052 45.3844 72.7188C45.2646 72.4323 45.2047 72.1276 45.2047 71.8047V62.7969H46.1656V66.6719C46.3844 66.4115 46.6474 66.2083 46.9547 66.0625C47.262 65.9167 47.5953 65.8438 47.9547 65.8438H48.1969C48.5198 65.8438 48.8245 65.9062 49.1109 66.0312C49.3974 66.151 49.6474 66.3177 49.8609 66.5312C50.0745 66.7448 50.2411 66.9948 50.3609 67.2812C50.4859 67.5677 50.5484 67.8724 50.5484 68.1953V71.8047ZM49.5875 68.1406C49.5875 67.9479 49.551 67.7682 49.4781 67.6016C49.4052 67.4297 49.3063 67.2812 49.1813 67.1562C49.0563 67.0312 48.9078 66.9323 48.7359 66.8594C48.5693 66.7865 48.3896 66.75 48.1969 66.75H47.5563C47.3635 66.75 47.1813 66.7865 47.0094 66.8594C46.8427 66.9323 46.6969 67.0312 46.5719 67.1562C46.4469 67.2812 46.3479 67.4297 46.275 67.6016C46.2021 67.7682 46.1656 67.9479 46.1656 68.1406V71.8594C46.1656 72.0521 46.2021 72.2344 46.275 72.4062C46.3479 72.5729 46.4469 72.7188 46.5719 72.8438C46.6969 72.9688 46.8427 73.0677 47.0094 73.1406C47.1813 73.2135 47.3635 73.25 47.5563 73.25H48.1969C48.3896 73.25 48.5693 73.2135 48.7359 73.1406C48.9078 73.0677 49.0563 72.9688 49.1813 72.8438C49.3063 72.7188 49.4052 72.5729 49.4781 72.4062C49.551 72.2344 49.5875 72.0521 49.5875 71.8594V68.1406ZM56.1019 66.9141C55.9092 66.9141 55.7269 66.9505 55.555 67.0234C55.3883 67.0964 55.2425 67.1953 55.1175 67.3203C54.9925 67.4453 54.8935 67.5938 54.8206 67.7656C54.7477 67.9323 54.7113 68.112 54.7113 68.3047V74H53.7503V66H54.0706L54.5941 66.8125C54.8128 66.5156 55.0863 66.2812 55.4144 66.1094C55.7477 65.9323 56.1097 65.8438 56.5003 65.8438H57.0628V66.9141H56.1019ZM59.8662 64.0781V62.7969H60.9834V64.0781H59.8662ZM59.9444 74V66H60.9053V74H59.9444ZM68.8181 74V68.1406C68.8181 67.9479 68.7817 67.7682 68.7087 67.6016C68.6358 67.4297 68.5369 67.2812 68.4119 67.1562C68.2869 67.0312 68.1384 66.9323 67.9666 66.8594C67.7999 66.7865 67.6202 66.75 67.4275 66.75H66.7869C66.5942 66.75 66.4119 66.7865 66.24 66.8594C66.0733 66.9323 65.9275 67.0312 65.8025 67.1562C65.6775 67.2812 65.5785 67.4297 65.5056 67.6016C65.4327 67.7682 65.3962 67.9479 65.3962 68.1406V74H64.4353V66H64.7556L65.2791 66.8125C65.4978 66.5156 65.7712 66.2812 66.0994 66.1094C66.4327 65.9323 66.7947 65.8438 67.1853 65.8438H67.4275C67.7504 65.8438 68.0551 65.9062 68.3416 66.0312C68.628 66.151 68.878 66.3177 69.0916 66.5312C69.3051 66.7448 69.4718 66.9948 69.5916 67.2812C69.7166 67.5677 69.7791 67.8724 69.7791 68.1953V74H68.8181ZM78.3247 71.8047C78.3247 72.1276 78.2622 72.4323 78.1372 72.7188C78.0174 73.0052 77.8507 73.2552 77.6372 73.4688C77.4236 73.6823 77.1736 73.8516 76.8872 73.9766C76.6007 74.0964 76.296 74.1562 75.9731 74.1562H75.3325C75.0096 74.1562 74.7049 74.0964 74.4184 73.9766C74.132 73.8516 73.882 73.6823 73.6684 73.4688C73.4549 73.2552 73.2856 73.0052 73.1606 72.7188C73.0408 72.4323 72.9809 72.1276 72.9809 71.8047V68.1953C72.9809 67.8724 73.0408 67.5677 73.1606 67.2812C73.2856 66.9948 73.4549 66.7448 73.6684 66.5312C73.882 66.3177 74.132 66.151 74.4184 66.0312C74.7049 65.9062 75.0096 65.8438 75.3325 65.8438H75.9731C76.296 65.8438 76.6007 65.9062 76.8872 66.0312C77.1736 66.151 77.4236 66.3177 77.6372 66.5312C77.8507 66.7448 78.0174 66.9948 78.1372 67.2812C78.2622 67.5677 78.3247 67.8724 78.3247 68.1953V71.8047ZM77.3637 68.1406C77.3637 67.9479 77.3273 67.7682 77.2544 67.6016C77.1815 67.4297 77.0825 67.2812 76.9575 67.1562C76.8325 67.0312 76.6841 66.9323 76.5122 66.8594C76.3455 66.7865 76.1658 66.75 75.9731 66.75H75.3325C75.1398 66.75 74.9575 66.7865 74.7856 66.8594C74.619 66.9323 74.4731 67.0312 74.3481 67.1562C74.2231 67.2812 74.1242 67.4297 74.0512 67.6016C73.9783 67.7682 73.9419 67.9479 73.9419 68.1406V71.8594C73.9419 72.0521 73.9783 72.2344 74.0512 72.4062C74.1242 72.5729 74.2231 72.7188 74.3481 72.8438C74.4731 72.9688 74.619 73.0677 74.7856 73.1406C74.9575 73.2135 75.1398 73.25 75.3325 73.25H75.9731C76.1658 73.25 76.3455 73.2135 76.5122 73.1406C76.6841 73.0677 76.8325 72.9688 76.9575 72.8438C77.0825 72.7188 77.1815 72.5729 77.2544 72.4062C77.3273 72.2344 77.3637 72.0521 77.3637 71.8594V68.1406ZM87.0266 71.9688C87.0266 72.2917 86.9615 72.5885 86.8313 72.8594C86.701 73.125 86.524 73.3542 86.3 73.5469C86.076 73.7396 85.8156 73.8906 85.5188 74C85.2271 74.1042 84.9198 74.1562 84.5969 74.1562H83.9563C83.6333 74.1562 83.3234 74.0964 83.0266 73.9766C82.7349 73.8516 82.4771 73.6823 82.2531 73.4688C82.0344 73.2552 81.8573 73.0052 81.7219 72.7188C81.5917 72.4323 81.5266 72.1276 81.5266 71.8047V71.4844L82.4875 71.3281V71.8594C82.4875 72.0521 82.5266 72.2344 82.6047 72.4062C82.688 72.5729 82.7974 72.7188 82.9328 72.8438C83.0682 72.9688 83.2245 73.0677 83.4016 73.1406C83.5786 73.2135 83.7635 73.25 83.9563 73.25H84.5969C84.7896 73.25 84.9745 73.2214 85.1516 73.1641C85.3286 73.1068 85.4849 73.026 85.6203 72.9219C85.7609 72.8125 85.8703 72.6823 85.9484 72.5312C86.0318 72.3802 86.0734 72.2083 86.0734 72.0156C86.0734 71.7292 86.0109 71.4948 85.8859 71.3125C85.7609 71.1302 85.5943 70.9792 85.3859 70.8594C85.1828 70.7344 84.9484 70.6328 84.6828 70.5547C84.4224 70.4714 84.1542 70.3906 83.8781 70.3125C83.6021 70.2292 83.3313 70.1354 83.0656 70.0312C82.8052 69.9271 82.5708 69.7917 82.3625 69.625C82.1594 69.4531 81.9953 69.2396 81.8703 68.9844C81.7453 68.7292 81.6828 68.4115 81.6828 68.0312C81.6828 67.7083 81.7453 67.4141 81.8703 67.1484C81.9953 66.8776 82.1646 66.6458 82.3781 66.4531C82.5917 66.2604 82.8391 66.112 83.1203 66.0078C83.4068 65.8984 83.7115 65.8438 84.0344 65.8438H84.5969C84.9198 65.8438 85.2245 65.9062 85.5109 66.0312C85.7974 66.151 86.0474 66.3177 86.2609 66.5312C86.4745 66.7448 86.6411 66.9948 86.7609 67.2812C86.8859 67.5677 86.9484 67.8724 86.9484 68.1953V68.2266L85.9875 68.3828V68.1406C85.9875 67.9479 85.951 67.7682 85.8781 67.6016C85.8052 67.4297 85.7063 67.2812 85.5813 67.1562C85.4563 67.0312 85.3078 66.9323 85.1359 66.8594C84.9693 66.7865 84.7896 66.75 84.5969 66.75H84.0344C83.8417 66.75 83.6594 66.7786 83.4875 66.8359C83.3208 66.8932 83.175 66.9766 83.05 67.0859C82.925 67.1901 82.826 67.3177 82.7531 67.4688C82.6802 67.6198 82.6438 67.7917 82.6438 67.9844C82.6438 68.2604 82.7063 68.487 82.8313 68.6641C82.9563 68.8359 83.1203 68.9818 83.3234 69.1016C83.5318 69.2214 83.7661 69.3229 84.0266 69.4062C84.2922 69.4844 84.5604 69.5677 84.8313 69.6562C85.1073 69.7396 85.3755 69.8359 85.6359 69.9453C85.9016 70.0547 86.1359 70.1953 86.3391 70.3672C86.5474 70.5391 86.7141 70.7552 86.8391 71.0156C86.9641 71.2708 87.0266 71.5885 87.0266 71.9688Z" fill="#00A0B1"/>
</svg>
